# xmcd
#
# Track frame offsets: 
#        150
#        19861
#        38663
#        58226
#        73013
#        88869
#
# Disc length: 1437 seconds
#
# Revision: 0
# Processed by: cddbd v1.5.2PL0 Copyright (c) Steve Scherf et al.
# Submitted via: ExactAudioCopyFreeDBPlugin 1.0
#
DISCID=4e059b06
DTITLE=Melvin Taylor - Taylor Made
DYEAR=2013
DGENRE=Blues
TTITLE0=Whenever I See You
TTITLE1=Blue Moon
TTITLE2=Heartache
TTITLE3=Beneath The Sunset
TTITLE4=Do Your Thing
TTITLE5=Time Out
EXTD=
EXTT0=
EXTT1=
EXTT2=
EXTT3=
EXTT4=
EXTT5=
PLAYORDER=
